<svg width="20" height="20" viewBox="0 0 20 20" fill="none" xmlns="http://www.w3.org/2000/svg">
<circle cx="10" cy="10" r="9.6" fill="white" stroke="black" stroke-width="0.8"/>
<g clip-path="url(#clip0_1326_29)">
<path d="M14.5834 6.25004C14.1844 6.53149 13.7426 6.74675 13.2751 6.88754C13.0241 6.599 12.6906 6.39449 12.3197 6.30168C11.9487 6.20886 11.5582 6.2322 11.2009 6.36856C10.8437 6.50492 10.5369 6.74771 10.3222 7.06409C10.1074 7.38047 9.99496 7.75518 10.0001 8.13754V8.55421C9.26785 8.57319 8.54228 8.41079 7.888 8.08148C7.23372 7.75216 6.67105 7.26614 6.25008 6.66671C6.25008 6.66671 4.58341 10.4167 8.33341 12.0834C7.4753 12.6659 6.45306 12.9579 5.41675 12.9167C9.16675 15 13.7501 12.9167 13.7501 8.12504C13.7497 8.00898 13.7385 7.8932 13.7167 7.77921C14.142 7.35983 14.4421 6.83034 14.5834 6.25004Z" stroke="black" stroke-width="0.8" stroke-linecap="round" stroke-linejoin="round"/>
</g>
<defs>
<clipPath id="clip0_1326_29">
<rect width="10" height="10" fill="white" transform="translate(5 5)"/>
</clipPath>
</defs>
</svg>
