<svg width="100" height="100" viewBox="0 0 100 100" fill="none" xmlns="http://www.w3.org/2000/svg">
<circle cx="50" cy="50" r="50" fill="#C82424"/>
<path d="M60.175 47.8625L42.5 37.275C42.122 37.0567 41.6934 36.9412 41.2568 36.94C40.8203 36.9388 40.3911 37.0519 40.0118 37.268C39.6326 37.4842 39.3166 37.7959 39.0952 38.1721C38.8738 38.5484 38.7548 38.976 38.75 39.4125L38.75 60.5875C38.7548 61.024 38.8738 61.4516 39.0952 61.8279C39.3166 62.2041 39.6326 62.5158 40.0118 62.732C40.3911 62.9481 40.8203 63.0612 41.2568 63.06C41.6934 63.0588 42.122 62.9433 42.5 62.725L60.175 52.1375C60.5424 51.9147 60.8461 51.6009 61.0569 51.2265C61.2677 50.8521 61.3784 50.4297 61.3784 50C61.3784 49.5703 61.2677 49.1479 61.0569 48.7735C60.8461 48.3991 60.5424 48.0853 60.175 47.8625Z" stroke="white" stroke-width="3" stroke-linecap="round" stroke-linejoin="round"/>
</svg>
